<svg xmlns="http://www.w3.org/2000/svg" viewBox="0 0 306 127.65"><defs><style>.cls-1{fill:#00140d;}.cls-2{fill:#60c3ad;}</style></defs><g id="Layer_2" data-name="Layer 2"><g id="Layer_1-2" data-name="Layer 1"><path class="cls-1" d="M72.63,101.36c-5.83,3.43-13.33,6.66-22,6.66-14.94,0-26.46-9.9-26.46-26.64,0-15.67,10.8-26.47,27.18-26.47a38.36,38.36,0,0,1,19.4,5.63l9.54-16.4c-6.49-4.46-16.68-9-30.74-9C19.62,35.11,0,55.81,0,81.2c0,26.1,17.64,46.45,48.25,46.45,16,0,28.05-6.36,33.46-10.68Z"/><path class="cls-1" d="M134.06,107.61a32.46,32.46,0,0,1-5,.41c-7.39,0-11.17-3.6-11.17-14V60.46h16.23V40.66H117.88V18.51H105.82l-24.41,42H94.48v37.3c0,20,10.47,29.55,27.94,29.86Z"/><path class="cls-1" d="M205.76,77.24c-5.22-2.7-12.24-4.14-21.6-5.4-7.74-1.09-13.32-1.8-16.21-3.07A6,6,0,0,1,163.81,63c0-5,4.33-9,15.85-9a70.35,70.35,0,0,1,23.77,4.36l9.5-16.32,0-.1c-5.58-2.7-18.18-6.84-33.66-6.84-25.75,0-38.53,12.42-38.53,27.9,0,7.93,3.42,14.41,8.82,18,5,3.42,12.06,5.58,23.77,7.2,8.28,1.08,13.86,1.8,16.56,2.88a6.87,6.87,0,0,1,4.68,6.84c0,5.76-5,11-17.64,11a77.09,77.09,0,0,1-26.72-5.24l-9.55,16.4-.1.37c5.58,2.7,21.06,7.2,37.45,7.2,26.64,0,39.78-13.69,39.78-29.89C217.82,88.4,213.51,81.2,205.76,77.24Z"/><polygon class="cls-1" points="259.52 20.9 235.11 62.85 246.54 62.85 270.95 20.9 259.52 20.9"/><polygon class="cls-2" points="294.57 0 270.15 41.95 281.59 41.95 306 0 294.57 0"/><polygon class="cls-2" points="248.81 0 224.4 41.95 235.83 41.95 260.24 0 248.81 0"/></g></g></svg>