<svg xmlns="http://www.w3.org/2000/svg" viewBox="0 0 249.3 138.7"><defs><style>.cls-1{fill:#271e00;}</style></defs><g id="Layer_2" data-name="Layer 2"><g id="Layer_1-2" data-name="Layer 1"><path class="cls-1" d="M225.67,135.18v-8.81c0-7.11,4.88-12,11.24-12H237c6.36,0,11.3,4.91,11.3,12v8.81Zm18.12-8.81a6.44,6.44,0,0,0-6.75-6.82H237a6.5,6.5,0,0,0-6.82,6.82v3.84h13.63Z"/><path class="cls-1" d="M224.7,111.64v-5.17h4.36v5.17Zm6.27-.13V106.6h17.31v4.91Z"/><path class="cls-1" d="M246,104l-3.23-2.1a9.81,9.81,0,0,0,2.06-5.46c0-1.42-.51-2.07-1.29-2.07h-.06c-1.07,0-1.42,1.68-2,3.59-.71,2.42-1.85,5.17-5.2,5.17h-.07c-3.52,0-5.49-2.85-5.49-6.33a12,12,0,0,1,2-6.46l3.39,1.87a10.24,10.24,0,0,0-1.61,4.68c0,1.2.52,1.81,1.19,1.81h.07c1,0,1.42-1.65,2.07-3.52.8-2.42,2-5.23,5.13-5.23H243c3.84,0,5.58,2.87,5.58,6.62A12.11,12.11,0,0,1,246,104Z"/><path class="cls-1" d="M243.37,85.65h-8.2v2.07H231V85.65h-4.43V80.74H231V76.68h4.2v4.06h7.39c1.13,0,1.68-.48,1.68-1.58a5,5,0,0,0-.61-2.42h3.94a7.27,7.27,0,0,1,1,3.88C248.57,83.62,247.38,85.65,243.37,85.65Z"/><path class="cls-1" d="M231,72.92V68h3.49c-2.39-1-3.94-2.62-3.81-5.52h5.13v.25c0,3.27,2,5.27,6.11,5.27h6.39v4.91Z"/><path class="cls-1" d="M224.7,59.1V53.93h4.36V59.1ZM231,59V54.06h17.31V59Z"/><path class="cls-1" d="M239.72,51.57h-.06a8.88,8.88,0,0,1-9-9.07,8.5,8.5,0,0,1,2.9-6.91l3.23,3a5.07,5.07,0,0,0-1.9,3.94c0,2.46,2.16,4.2,4.71,4.2h.07c2.64,0,4.78-1.71,4.78-4.39a5.5,5.5,0,0,0-1.84-4l2.9-2.87a8.73,8.73,0,0,1,3.17,7.07A8.84,8.84,0,0,1,239.72,51.57Z"/><path class="cls-1" d="M243.37,31.49h-8.2v2.06H231V31.49h-4.43V26.58H231V22.51h4.2v4.07h7.39c1.13,0,1.68-.49,1.68-1.58a5,5,0,0,0-.61-2.43h3.94a7.3,7.3,0,0,1,1,3.88C248.57,29.45,247.38,31.49,243.37,31.49Z"/><path class="cls-1" d="M245.39,17l-3.26-3.43a6.87,6.87,0,0,0,2.71-5.46c0-1.87-1.06-3.19-2.74-3.19H242c-1.84,0-2.87,1.64-2.87,4.42v2.07l-3.16.77-5.43-5.39v8.88h-4.26V.36h3.74l5.46,5.71C236,3,237.64,0,241.84,0h.07c4.26,0,7.39,3.1,7.39,8.14A11,11,0,0,1,245.39,17Z"/><path class="cls-1" d="M106,21.84C92.65,8.23,73.48,1.33,49,1.33H0V135.24H49c24.47,0,43.64-6.9,57-20.51,11.58-11.82,17.7-27.88,17.7-46.44S117.57,33.66,106,21.84ZM5.17,10,30,34.07V101H5.17ZM102.3,111.11C90,123.7,72,130.08,49,130.08H5.17v-23.9H49c15.95,0,27.82-3.86,35.28-11.48,7.81-8,9.45-18.77,9.45-26.41S92.1,49.85,84.29,41.87C76.83,34.25,65,30.39,49,30.39H33.58L9,6.49H49c23,0,41,6.39,53.29,19,10.61,10.83,16.22,25.64,16.22,42.83S112.91,100.28,102.3,111.11ZM35.11,101V35.56H49c14.51,0,25.13,3.34,31.59,9.93s8,16.11,8,22.8-1.38,16.06-8,22.79S63.52,101,49,101Z"/><path class="cls-1" d="M187,46.87l20.93-18.16h.49v-.43l2.37-2.05-2.37-2.3v-.38H208L185,1.26H107.88l28.29,27.45h23l-23,20,23,22.26,0,0v.22c10.05,0,18.22,7.9,18.22,17.6s-8.17,17.61-18.22,17.61a18.65,18.65,0,0,1-10.38-3.15,27.58,27.58,0,0,1-5.15-4.73l-1.7-1.89L140,98.31l-20.71,18-1.9,1.65,1.59,1.94a51.65,51.65,0,0,0,40.17,18.82c28.31,0,51.34-22.38,51.34-49.9A49.86,49.86,0,0,0,187,46.87ZM138.27,23.55,120.63,6.43h62.3l17.63,17.12H138.27ZM143.75,49,167,28.71h33L159.31,64Zm15.42,84.57a46.56,46.56,0,0,1-34.53-15l16.89-14.66a27.32,27.32,0,0,0,4.43,3.74,23.77,23.77,0,0,0,13.21,4c12.9,0,23.39-10.22,23.39-22.78a23,23,0,0,0-18.31-22.22l18.61-16.16A44.75,44.75,0,0,1,205.34,88.8C205.34,113.47,184.63,133.54,159.17,133.54Z"/></g></g></svg>