<svg xmlns="http://www.w3.org/2000/svg" xmlns:xlink="http://www.w3.org/1999/xlink" viewBox="0 0 1670.24 1792.53"><defs><style>.cls-1,.cls-3{fill:none;}.cls-2{fill:#010101;}.cls-3{stroke:#010101;stroke-miterlimit:10;stroke-width:9px;}.cls-4{fill:#b3b3b3;}.cls-5{clip-path:url(#clip-path);}.cls-6{fill:#fff;}</style><clipPath id="clip-path"><rect class="cls-1" x="1177.08" y="1308.34" width="294.5" height="294.5"/></clipPath></defs><g id="Layer_2" data-name="Layer 2"><g id="Layer_3" data-name="Layer 3"><rect class="cls-1" width="1670.24" height="1792.53"/><g id="Layer_2-2" data-name="Layer 2"><g id="Layer_1-2" data-name="Layer 1-2"><path class="cls-2" d="M974.94,1533.34v-10.41c0-8.4,5.77-14.17,13.28-14.17h.1c7.52,0,13.35,5.8,13.35,14.17v10.41Zm21.4-10.41a7.6,7.6,0,0,0-7.13-8,7.85,7.85,0,0,0-.84,0h0a7.68,7.68,0,0,0-8.05,7.28q0,.39,0,.78v4.54h16.1Z"/><path class="cls-2" d="M973.8,1505.53v-6.1H979v6.1Zm7.4-.15v-5.8h20.45v5.8Z"/><path class="cls-2" d="M999,1496.51l-3.81-2.48a11.58,11.58,0,0,0,2.43-6.45c0-1.68-.6-2.45-1.52-2.45H996c-1.27,0-1.68,2-2.36,4.24-.84,2.86-2.19,6.11-6.15,6.11h-.08c-4.16,0-6.48-3.37-6.48-7.48a14.23,14.23,0,0,1,2.36-7.63l4,2.21a12.15,12.15,0,0,0-1.9,5.53c0,1.42.62,2.14,1.41,2.14h.08c1.18,0,1.68-2,2.44-4.16,1-2.86,2.37-6.18,6.06-6.18h0c4.54,0,6.59,3.39,6.59,7.82A14.29,14.29,0,0,1,999,1496.51Z"/><path class="cls-2" d="M995.85,1474.83h-9.69v2.45h-4.92v-2.45H976V1469h5.23v-4.79h5V1469h8.73c1.33,0,2-.56,2-1.86a5.84,5.84,0,0,0-.72-2.86h4.65a8.57,8.57,0,0,1,1.19,4.58C1002,1472.44,1000.58,1474.83,995.85,1474.83Z"/><path class="cls-2" d="M981.24,1459.8V1454h4.12c-2.82-1.18-4.65-3.1-4.5-6.52h6.06v.29c0,3.86,2.36,6.23,7.22,6.23h7.54v5.8Z"/><path class="cls-2" d="M973.8,1443.47v-6.1H979v6.1Zm7.44-.11v-5.84h20.44v5.84Z"/><path class="cls-2" d="M991.54,1434.58h-.07a10.49,10.49,0,0,1-10.64-10.34c0-.13,0-.25,0-.37a10,10,0,0,1,3.42-8.16l3.82,3.54a6,6,0,0,0-2.25,4.65c0,2.91,2.55,5,5.57,5h.08c3.12,0,5.64-2,5.64-5.18A6.5,6.5,0,0,0,995,1419l3.43-3.39a10.33,10.33,0,0,1,3.74,8.35,10.45,10.45,0,0,1-10.21,10.67Z"/><path class="cls-2" d="M995.85,1410.86h-9.69v2.44h-4.92v-2.44H976v-5.8h5.23v-4.8h5v4.8h8.73c1.33,0,2-.58,2-1.86a5.85,5.85,0,0,0-.72-2.87h4.65a8.55,8.55,0,0,1,1.19,4.58C1002,1408.45,1000.58,1410.86,995.85,1410.86Z"/><path class="cls-2" d="M998.23,1393.75l-3.85-4a8.1,8.1,0,0,0,3.2-6.45c0-2.21-1.25-3.77-3.23-3.77h-.12c-2.17,0-3.39,1.94-3.39,5.22v2.45l-3.73.9-6.42-6.36v10.49h-5v-18.09h4.42l6.45,6.75c.61-3.63,2.55-7.17,7.51-7.17h.08c5,0,8.73,3.66,8.73,9.61A13,13,0,0,1,998.23,1393.75Z"/><path class="cls-2" d="M833.59,1399.46c-15.76-16.07-38.41-24.22-67.32-24.22H708.39v158.17h57.88c28.9,0,51.54-8.15,67.32-24.23,13.68-14,20.91-32.93,20.91-54.85S847.26,1413.43,833.59,1399.46Zm-119.09-14,29.33,28.43v79H714.5Zm114.72,119.43c-14.52,14.87-35.79,22.4-63,22.4H714.5v-28.23h51.77c18.84,0,32.86-4.56,41.67-13.56,9.22-9.45,11.16-22.17,11.16-31.19s-1.92-21.78-11.15-31.21c-8.81-9-22.78-13.56-41.68-13.56H748.06l-29-28.23h47.25c27.16,0,48.43,7.55,62.94,22.45,12.53,12.79,19.16,30.28,19.16,50.58S841.76,1492.11,829.22,1504.91Zm-79.36-12v-77.29h16.41c17.14,0,29.68,3.94,37.31,11.73s9.45,19,9.45,26.93-1.63,19-9.45,26.92S783.42,1493,766.27,1493Z"/><path class="cls-2" d="M929.27,1429,954,1407.58h.58v-.51l2.8-2.42-2.8-2.72v-.45h-.5l-27.17-26.32H835.81l33.42,32.42H896.4l-27.17,23.62,27.17,26.29h0v.26c11.87,0,21.52,9.34,21.52,20.79s-9.65,20.8-21.52,20.8a22,22,0,0,1-12.26-3.72,32.27,32.27,0,0,1-6.09-5.58l-2-2.24-2.29,2-24.46,21.26-2.24,2,1.88,2.29a61,61,0,0,0,47.44,22.23c33.44,0,60.64-26.44,60.64-58.94A58.9,58.9,0,0,0,929.27,1429Zm-57.56-27.55-20.84-20.22h73.59l20.82,20.22Zm6.47,30.06,27.46-24h39l-48.06,41.68Zm18.22,99.89a55,55,0,0,1-40.79-17.71l19.95-17.32a32,32,0,0,0,5.23,4.42,28.05,28.05,0,0,0,15.61,4.72c15.23,0,27.62-12.07,27.62-26.9a27.16,27.16,0,0,0-21.62-26.25l22-19.09a52.86,52.86,0,0,1,26.55,45.25c0,29.14-24.46,52.85-54.53,52.85Z"/></g></g><path class="cls-2" d="M194,663.39h39.9v150.8H194Z"/><path class="cls-2" d="M267.28,663.39h40.83l33.41,67.28c5.1,10.21,9.74,22.27,14.38,33.87h.93c-1.85-16.24-5.1-39-5.1-57.53V663.39h38v150.8H348.94l-33.4-67.28c-5.11-10.21-9.75-22.27-14.39-33.87h-.92c1.85,17.17,5.1,39,5.1,57.53v43.62H267.28Z"/><path class="cls-2" d="M423.19,663.39H464l33.4,67.28c5.11,10.21,9.75,22.27,14.39,33.87h.93c-1.86-16.24-5.11-39-5.11-57.53V663.39h38v150.8H504.85l-33.41-67.28c-5.1-10.21-9.74-22.27-14.38-33.87h-.93c1.85,17.17,5.1,39,5.1,57.53v43.62h-38Z"/><path class="cls-2" d="M572.59,738.09c0-49.64,28.31-77.48,70.06-77.48s70.07,28.07,70.07,77.48c0,49.65-28.31,78.88-70.07,78.88S572.59,787.74,572.59,738.09Zm99.3,0c0-27.37-11.14-43.15-29.24-43.15s-29.23,15.78-29.23,43.15,11.14,44.55,29.23,44.55S671.89,765.47,671.89,738.09Z"/><path class="cls-2" d="M718.29,663.39h42.22l14.85,65.89c3.71,16,7,31.55,11.13,47.79h.93c4.18-16.24,7.19-31.78,11.14-47.79l16.24-65.89h40.83l-45.47,150.8H761.9Z"/><path class="cls-2" d="M892.29,663.39h48.25l45.94,150.8H944.25l-7.42-32H894.61l-7.43,32H846.35Zm9.51,87.93h27.84l-2.55-10.44c-3.72-14.38-7.43-32.71-11.14-47.79H915c-3.25,15.31-7,33.41-10.67,47.79Z"/><path class="cls-2" d="M1011.07,696.8h-39.9V663.39h119.71V696.8H1051V814.19h-39.91Z"/><path class="cls-2" d="M1113.15,663.39h39.91v150.8h-39.91Z"/><path class="cls-2" d="M1180,738.09c0-49.64,28.3-77.48,70.06-77.48s70.06,28.07,70.06,77.48c0,49.65-28.3,78.88-70.06,78.88S1180,787.74,1180,738.09Zm99.29,0c0-27.37-11.13-43.15-29.23-43.15s-29.23,15.78-29.23,43.15,11.13,44.55,29.23,44.55S1279.26,765.47,1279.26,738.09Z"/><path class="cls-2" d="M1347,663.39h40.84l33.4,67.28c5.11,10.21,9.75,22.27,14.39,33.87h.93c-1.86-16.24-5.11-39-5.11-57.53V663.39h38v150.8h-40.83l-33.41-67.28c-5.1-10.21-9.74-22.27-14.38-33.87H1380c1.85,17.17,5.1,39,5.1,57.53v43.62h-38Z"/><path class="cls-2" d="M193,431.27h38.7v54.45h43.65V431.27H314V577.53h-38.7V519.47H231.67v58.06H193Z"/><path class="cls-2" d="M346.42,431.27h94.5v32.4h-55.8v22.95h47.7V519h-47.7v26.1h58.05v32.41H346.42Z"/><path class="cls-2" d="M497.62,431.27h46.8L589,577.53H548l-7.2-31.06h-41l-7.2,31.06h-39.6Zm9.22,85.28h27l-2.48-10.13c-3.6-13.95-7.2-31.72-10.8-46.35h-.9c-3.15,14.85-6.75,32.4-10.35,46.35Z"/><path class="cls-2" d="M602.92,431.27h38.7V545.12H697v32.41H602.92Z"/><path class="cls-2" d="M723.07,463.67h-38.7v-32.4h116.1v32.4h-38.7V577.53h-38.7Z"/><path class="cls-2" d="M822.07,431.27h38.7v54.45h43.65V431.27h38.7V577.53h-38.7V519.47H860.77v58.06h-38.7Z"/><path class="cls-2" d="M969.22,505.52c0-49,33.75-76.95,70.65-76.95a62.73,62.73,0,0,1,45.45,19.35l-20.25,23.4c-7.2-6.3-14.4-9.45-24.3-9.45-17.1,0-31.95,15.75-31.95,42.3,0,27.45,12.6,42.75,31.5,42.75a35.47,35.47,0,0,0,26.55-11.25l20.25,23c-13,14.85-29.7,21.61-48.15,21.61C1001.62,580.23,969.22,555.47,969.22,505.52Z"/><path class="cls-2" d="M1133.47,431.27h46.8l44.55,146.26h-41l-7.2-31.06h-41l-7.2,31.06h-39.6Zm9.22,85.28h27l-2.47-10.13c-3.6-13.95-7.2-31.72-10.8-46.35h-.9c-3.15,14.85-6.75,32.4-10.35,46.35Z"/><path class="cls-2" d="M1238.77,431.27h55.35c31.5,0,58.5,10.8,58.5,47.25,0,20.93-9.45,34.65-23.63,42.3l31.73,56.71h-43.2l-25.2-49.06h-14.85v49.06h-38.7Zm52.65,66.6c15.3,0,23.4-6.75,23.4-19.35s-8.1-16.65-23.4-16.65h-14v36Z"/><path class="cls-2" d="M1380.51,431.27H1475v32.4h-55.8v22.95h47.7V519h-47.7v26.1h58v32.41h-96.76Z"/><path class="cls-2" d="M203.67,970.55H189.55v-27.4l14.12-1.07v-1.5c0-22.89,10.7-43.22,42.38-43.22a68.15,68.15,0,0,1,22.68,3.85l-6.85,26.11A42,42,0,0,0,251.61,926c-6.85,0-11.13,3.43-11.13,13.27v2.57h18v28.68h-18v78.32H203.67Z"/><path class="cls-2" d="M274.29,941.87h30l2.57,18.4h.85c7.92-14.55,19.91-21,30.39-21,6.64,0,10.28.86,13.27,2.14l-6.85,31.25a43.94,43.94,0,0,0-11.12-1.29c-7.71,0-17.13,4.71-22.26,18v59.49H274.29Z"/><path class="cls-2" d="M356,995.37c0-35.52,25.68-56.07,53.07-56.07s53.08,20.55,53.08,56.07-25.69,56.07-53.08,56.07S356,1030.9,356,995.37Zm68.48,0c0-16.26-4.28-26.54-15.41-26.54s-15.41,10.28-15.41,26.54,4.28,26.54,15.41,26.54S424.52,1011.63,424.52,995.37Z"/><path class="cls-2" d="M481.44,941.87h30l2.57,13h.86c8.56-8.34,17.55-15.62,32.1-15.62s23.75,6,29.53,17.12c8.77-9,18.4-17.12,33-17.12,23.54,0,33.81,17.12,33.81,43.66v65.91H606.42v-61.2c0-13.7-3.42-17.12-10.7-17.12-4.28,0-9.42,2.56-15,8.13v70.19H543.93v-61.2c0-13.7-3.42-17.12-10.7-17.12-4.28,0-9.41,2.56-15,8.13v70.19H481.44Z"/><path class="cls-2" d="M707,980.39c0-46.65,32.1-73.19,67.19-73.19a59.66,59.66,0,0,1,43.23,18.4l-19.26,22.26c-6.85-6-13.69-9-23.11-9-16.26,0-30.39,15-30.39,40.24,0,26.1,12,40.66,30,40.66a33.73,33.73,0,0,0,25.25-10.7l19.26,21.83c-12.41,14.12-28.24,20.54-45.79,20.54C737.81,1051.44,707,1027.9,707,980.39Z"/><path class="cls-2" d="M863.22,909.77h44.51l42.37,139.1h-39l-6.84-29.53H865.36l-6.85,29.53H820.84ZM872,990.88h25.68l-2.35-9.63c-3.43-13.27-6.85-30.18-10.27-44.09h-.86c-3,14.13-6.42,30.82-9.84,44.09Z"/><path class="cls-2" d="M963.37,909.77H1001l30.82,62.06c4.71,9.42,9,20.54,13.27,31.24h.85c-1.71-15-4.7-36-4.7-53.07V909.77h35.09v139.1H1038.7l-30.82-62.06c-4.71-9.42-9-20.54-13.27-31.25h-.85c1.71,15.84,4.71,36,4.71,53.08v40.23h-35.1Z"/><path class="cls-2" d="M1132,909.77h44.51l42.38,139.1h-39l-6.85-29.53h-38.95l-6.85,29.53h-37.66Zm8.77,81.11h25.68l-2.35-9.63c-3.42-13.27-6.85-30.18-10.27-44.09H1153c-3,14.13-6.42,30.82-9.84,44.09Z"/><path class="cls-2" d="M1232.15,909.77h41.09c42.37,0,71.48,19.69,71.48,68.91s-29.11,70.19-69.34,70.19h-43.23Zm38.95,109.57c20.12,0,36-8.13,36-40.66s-15.83-39.38-36-39.38H1269v80Z"/><path class="cls-2" d="M1392.22,909.77h44.52l42.37,139.1h-38.95l-6.85-29.53h-39l-6.84,29.53h-37.67Zm8.78,81.11h25.68l-2.35-9.63c-3.43-13.27-6.85-30.18-10.28-44.09h-.85c-3,14.13-6.42,30.82-9.85,44.09Z"/><path class="cls-2" d="M901.14,1137.85h24c16.82,0,29.46,5.92,29.46,23.55,0,16.94-12.64,24.59-29,24.59H915v27.73H901.14ZM924.58,1175c11.13,0,16.35-4.4,16.35-13.57s-5.8-12.53-16.82-12.53H915V1175Z"/><path class="cls-2" d="M961.23,1185.3c0-19,13-30,27.26-30s27.15,11,27.15,30-13,29.81-27.15,29.81S961.23,1204.2,961.23,1185.3Zm40.37,0c0-11.37-4.87-18.79-13.11-18.79s-13.11,7.42-13.11,18.79,4.88,18.67,13.11,18.67S1001.6,1196.55,1001.6,1185.3Z"/><path class="cls-2" d="M1022.37,1156.76h13.68l6.73,29.58a158.63,158.63,0,0,1,2.9,16.94h.46c1-6.73,2-11.83,3.14-16.94l7-29.58h13.92l7.19,29.58c1.27,5.11,2.32,10.21,3.36,16.94h.47c1-6.73,1.74-11.83,2.9-16.94l6.72-29.58h12.76l-14.5,57h-17l-5.8-26.45c-1.16-5.11-2.09-9.74-3.13-17.17h-.46a138.91,138.91,0,0,1-2.9,17.17l-5.8,26.45h-16.47Z"/><path class="cls-2" d="M1110.29,1185.18c0-18.56,13-29.93,26.33-29.93,15.43,0,23.78,11.14,23.78,27.15a31,31,0,0,1-.69,7h-36c1.39,9.51,7.42,15.08,16.47,15.08a23.93,23.93,0,0,0,13.22-4l4.64,8.59a33.14,33.14,0,0,1-19.72,6C1122.59,1215.11,1110.29,1204.2,1110.29,1185.18Zm38-6c0-8.35-3.94-13.22-11.37-13.22-6.49,0-12.06,4.64-13.22,13.22Z"/><path class="cls-2" d="M1172.93,1156.65h11.25l1,10.2h.35c4.17-7.42,10.2-11.6,16.24-11.6a16.35,16.35,0,0,1,6.49,1.16l-2.78,11.72a19.06,19.06,0,0,0-5.46-.7c-4.52,0-10,3-13.33,11.72v34.57h-13.81Z"/><path class="cls-2" d="M1211.68,1185.18c0-18.56,13-29.93,26.33-29.93,15.42,0,23.78,11.14,23.78,27.15a30.92,30.92,0,0,1-.7,7h-36c1.39,9.51,7.43,15.08,16.47,15.08a24,24,0,0,0,13.23-4l4.64,8.59a33.18,33.18,0,0,1-19.72,6C1224,1215.11,1211.68,1204.2,1211.68,1185.18Zm38-6c0-8.35-3.94-13.22-11.36-13.22-6.5,0-12.07,4.64-13.23,13.22Z"/><path class="cls-2" d="M1271,1185.3c0-18.68,11.6-30,24.13-30,6.38,0,10.44,2.44,14.85,6.27l-.58-9.17v-20.53H1323v81.9H1311.9l-1.05-6.15h-.46c-4.18,4.17-10,7.54-16,7.54C1280.12,1215.11,1271,1204.09,1271,1185.3Zm38.4,12.18v-26.22a16.11,16.11,0,0,0-11.37-4.64c-7.08,0-13,6.73-13,18.44,0,12.3,4.64,18.68,12.76,18.68C1302,1203.74,1305.75,1201.88,1309.35,1197.48Z"/><path class="cls-2" d="M1375.47,1207.68h-.35l-1.28,6h-10.79v-81.9h13.81v21.11l-.47,9.4c4.76-4.18,10.56-7.08,16.36-7.08,14.27,0,22.5,11.49,22.5,29,0,19.61-11.6,30.86-24.24,30.86C1385.79,1215.11,1380.22,1212.44,1375.47,1207.68Zm25.75-23.2c0-11.25-3.71-17.86-12.18-17.86-4.06,0-8,2-12.18,6.26v26.34a17,17,0,0,0,11.13,4.52C1395.42,1203.74,1401.22,1197.24,1401.22,1184.48Z"/><path class="cls-2" d="M1424.3,1235.76l2.67-10.33a12.77,12.77,0,0,0,3.94.58c5.92,0,9.4-3.94,11.25-9.51l1-3.6-22.39-56.25h13.92l9.63,27.72c1.74,5,3.36,10.67,5,16.12h.46c1.39-5.33,2.9-10.9,4.29-16.12l8.35-27.72h13.23l-20.53,59.5c-4.76,13-10.79,20.88-23.32,20.88A20.54,20.54,0,0,1,1424.3,1235.76Z"/><line class="cls-3" x1="195.35" y1="1182.53" x2="843.18" y2="1182.53"/><line class="cls-3" x1="937.25" y1="313.9" x2="1469.5" y2="313.9"/><line class="cls-3" x1="195.35" y1="313.9" x2="732.9" y2="313.9"/><path class="cls-2" d="M280.3,1483.21c-7.12,4.2-16.28,8.14-26.92,8.14-18.25,0-32.32-12.1-32.32-32.54,0-19.13,13.19-32.33,33.2-32.33,8.64,0,16.43,2.69,23.69,6.88l11.65-20c-7.93-5.44-20.36-11-37.54-11-36.5,0-60.47,25.28-60.47,56.29,0,31.88,21.55,56.73,58.93,56.73,19.56,0,34.26-7.77,40.87-13l-11.09-19.06Z"/><path class="cls-2" d="M355.33,1490.85a40.46,40.46,0,0,1-6.13.5c-9,0-13.64-4.4-13.64-17.15v-40.94h19.82v-24.18H335.56v-27H320.83L291,1433.26h16v45.55c0,24.45,12.78,36.09,34.13,36.47l14.22-24.43Z"/><path class="cls-2" d="M442.89,1453.75c-6.38-3.3-14.95-5.06-26.38-6.6-9.46-1.32-16.28-2.2-19.79-3.74a7.33,7.33,0,0,1-5.06-7c0-6.16,5.28-11,19.35-11a85.67,85.67,0,0,1,29,5.33l11.61-19.93,0-.13c-6.82-3.3-22.21-8.35-41.12-8.35-31.44,0-47.06,15.17-47.06,34.08,0,9.67,4.18,17.59,10.78,22,6.16,4.17,14.73,6.81,29,8.79,10.12,1.32,16.93,2.2,20.23,3.52a8.39,8.39,0,0,1,5.72,8.35c0,7-6.16,13.42-21.55,13.42-13.52,0-25.39-3.68-32.63-6.41l-11.66,20-.13.45c6.82,3.3,25.73,8.8,45.74,8.8,32.54,0,48.59-16.72,48.59-36.51,0-11.43-5.27-20.22-14.73-25.06Z"/><polygon class="cls-2" points="508.54 1384.94 478.73 1436.17 492.69 1436.17 522.51 1384.94 508.54 1384.94 508.54 1384.94"/><polygon class="cls-4" points="551.35 1359.42 521.53 1410.65 535.49 1410.65 565.31 1359.42 551.35 1359.42 551.35 1359.42"/><polygon class="cls-4" points="495.46 1359.42 465.65 1410.65 479.61 1410.65 509.43 1359.42 495.46 1359.42 495.46 1359.42"/><g class="cls-5"><g id="MaRS_Logo" data-name="MaRS Logo"><path class="cls-2" d="M1471.58,1455.59a147.25,147.25,0,1,1-147.25-147.25,147.18,147.18,0,0,1,147.25,147.25"/><path class="cls-6" d="M1247.75,1490.86v-17.29c0-7.14.14-13.72.41-19.35-2.19,5.35-5.9,13.86-8.37,18.94l-9.6,20.17-9.61-20.17c-2.47-5.22-6.18-13.59-8.37-18.94.27,5.63.41,12.21.41,19.35v17.29h-18.94v-72.73h18.53l8.92,19.49c4.39,9.33,8,17.84,9.19,22,1.24-4.11,4.53-12.07,9.2-22l8.92-19.49h18.25v72.73h-18.94"/><path class="cls-6" d="M1305.8,1490.86v-3.57a22.44,22.44,0,0,1-13.31,4.81c-10.57,0-17.7-6.59-17.7-18.8,0-11.81,8.09-17.71,19.62-17.71a25.32,25.32,0,0,1,11.25,2.34v-2.75c0-4.8-2.6-6.45-7.68-6.45a28.15,28.15,0,0,0-15.23,4l-4.81-12.35c6.59-3.16,14-4.94,23.47-4.94,15.23,0,22,7.55,22,20.17V1491H1305.8m0-22.37a17.84,17.84,0,0,0-8-1.51c-3.84,0-5.76,2.06-5.76,5.76,0,3.44,1.78,5.91,5.76,5.91a12.88,12.88,0,0,0,8-2.75Z"/><path class="cls-6" d="M1372.91,1490.86l-11.81-24.56H1353v24.56h-19.9v-72.73h32.52c17,0,28.41,6.45,28.41,23.74,0,10.84-5.08,17.7-13,21.27l14.55,27.72h-22.64m-7.83-56.26H1353v15.92h11.8c6.59,0,9.19-2.89,9.19-8.1C1373.87,1437.89,1371.4,1434.6,1365.08,1434.6Z"/><path class="cls-6" d="M1430.13,1492.1a58,58,0,0,1-30.6-8.79l9.74-15.78c5.36,3.57,14.55,7.28,21.27,7.28,7.14,0,9.47-1.24,9.47-4.67,0-2.74-2.6-4.39-12.35-6.59-17.56-4.11-25.93-8.78-25.93-23.33,0-13.72,11.11-22.91,28.68-22.91,12.35,0,21.27,3,28.95,8.37l-9.74,15.78c-6.45-4.39-12.9-6.86-20.17-6.86-6,0-7.55,1.92-7.55,4.53s2.61,4,11.94,6.17c18.25,4.39,26.35,10,26.35,23.6-.14,16.34-12.63,23.2-30.06,23.2"/></g></g><polygon class="cls-2" points="879.12 311.86 883.55 294.84 868.74 297.39 864.49 291.26 850.22 304.03 855.29 273.73 845.25 279.35 835.12 259.26 824.99 279.35 814.94 273.73 820.02 304.03 805.75 291.26 801.5 297.39 786.69 294.84 791.11 311.86 786.69 315.09 809.84 335.18 808.48 344.71 833.99 341.99 832.48 366.84 837.76 366.84 836.25 341.99 861.76 344.71 860.4 335.18 883.55 315.09 879.12 311.86"/></g></g></svg>