<svg xmlns="http://www.w3.org/2000/svg" viewBox="0 0 214.65 214.65"><defs><style>.cls-1{fill:#003da5;}.cls-2{fill:#fff;}</style></defs><g id="Layer_2" data-name="Layer 2"><g id="MaRS_Logo" data-name="MaRS Logo"><path class="cls-1" d="M214.65,107.33A107.33,107.33,0,1,1,107.33,0,107.32,107.32,0,0,1,214.65,107.33"/><path class="cls-2" d="M51.51,133.05V120.41c0-5.22.08-10,.3-14.08-1.57,3.93-4.31,10.07-6.13,13.85l-7,14.69-7-14.69c-1.81-3.78-4.53-9.92-6.13-13.85.24,4.09.3,8.86.3,14.08v12.64H12.15v-53H25.62l6.51,14.15c3.18,6.82,5.84,13,6.66,16a152.1,152.1,0,0,1,6.66-16L52,80.07H65.3v53H51.51"/><path class="cls-2" d="M93.82,133.05v-2.66a16.34,16.34,0,0,1-9.69,3.49c-7.72,0-12.87-4.77-12.87-13.7,0-8.55,5.9-13,14.31-13a18.85,18.85,0,0,1,8.25,1.68v-2c0-3.48-1.89-4.69-5.6-4.69a21.12,21.12,0,0,0-11.06,2.86l-3.54-9a37.74,37.74,0,0,1,17.1-3.64c11.12,0,16,5.54,16,14.75v25.82H93.82m0-16.2A13.45,13.45,0,0,0,88,115.71c-2.81,0-4.25,1.52-4.25,4.25,0,2.5,1.29,4.31,4.25,4.31a9.74,9.74,0,0,0,5.82-2Z"/><path class="cls-2" d="M142.71,133.05l-8.63-17.86h-5.89v17.86H113.71v-53h23.7c12.41,0,20.66,4.69,20.66,17.25,0,8-3.69,12.87-9.53,15.52l10.59,20.21H142.71M137,92h-8.84v11.59h8.63c4.75,0,6.65-2.12,6.65-5.91C143.47,94.38,141.66,92,137,92Z"/><path class="cls-2" d="M184.41,133.88a42.16,42.16,0,0,1-22.32-6.44l7.11-11.5c3.86,2.65,10.59,5.31,15.52,5.31,5.22,0,6.88-.92,6.88-3.41,0-2-1.88-3.19-9-4.85-12.8-2.95-18.94-6.43-18.94-17,0-10,8.11-16.73,20.91-16.73,9,0,15.5,2.19,21.11,6.14l-7.13,11.5c-4.69-3.18-9.37-5-14.75-5-4.39,0-5.46,1.36-5.46,3.25s1.9,2.89,8.71,4.46c13.32,3.19,19.23,7.26,19.23,17.19,0,12.11-9.15,17.1-21.88,17.1"/></g></g></svg>